<svg xmlns="http://www.w3.org/2000/svg" viewBox="0 0 151.47 40.18"><defs><style>.cls-1{fill:#ea5252;}.cls-2{fill:#d34444;}.cls-3{fill:#44c8f5;}.cls-4{fill:#58595b;}.cls-5{fill:#a6cd39;}.cls-6{fill:#01b4e4;}.cls-7{fill:#bdd647;}.cls-8{fill:#a9a9a9;}.cls-9{fill:#5eccef;}</style></defs><g id="Calque_2" data-name="Calque 2"><g id="Calque_1-2" data-name="Calque 1"><path class="cls-1" d="M108.86,21.25a50.78,50.78,0,0,0,3.86-7.74A44.41,44.41,0,0,0,115.39,2c.1-1.1.56-1.38,1.55-1.4,4.85-.12,9.7-.28,14.55-.44,1,0,2.1-.06,3.14-.18s1.51.46,1.76,1.42a13.54,13.54,0,0,1-.11,6.36c-1.29,6-4.11,11.34-7.49,16.4a3,3,0,0,1-.48.46c-2.91-.26-5.84-.25-8.75-.75a55.93,55.93,0,0,1-8.55-2A14.35,14.35,0,0,1,108.86,21.25Z"/><path class="cls-2" d="M108.86,21.25c1.34-.37,2.48.41,3.65.76a58.61,58.61,0,0,0,8.18,1.73,37.91,37.91,0,0,0,6.47.45c.45,0,.92-.05,1.15.47-2.45,3.63-5.12,7.05-9,9.29a1.14,1.14,0,0,0-.55,1.23c.09,1.41.16,2.82.24,4.29a3.57,3.57,0,0,1-1.73-.88q-6-3.8-12-7.63a5.8,5.8,0,0,1-1.61-4,1.15,1.15,0,0,1,.46-.62A31.32,31.32,0,0,0,108.86,21.25Z"/><path class="cls-2" d="M124.44,40.18A27.72,27.72,0,0,1,121,40c-.46-.09-.79-.26-.78-.78s.5-.47.84-.47c5.27,0,10.11-1.62,14.8-3.83a34.39,34.39,0,0,0,11.31-8c.45-.51.77-.45,1.18,0,.9,1,1.81,2,2.75,3,.53.55.57.87-.08,1.41a35.86,35.86,0,0,1-11.07,6.16A51.88,51.88,0,0,1,124.44,40.18Z"/><path class="cls-3" d="M138.45,21.87A7.51,7.51,0,0,1,136.92,24a37.2,37.2,0,0,1-5.47.41c1.26-2.12,2.59-4.2,3.71-6.41a38.12,38.12,0,0,0,3.72-10.57,15.71,15.71,0,0,0,.18-2.57c0-.75.27-.91.85-.45,1.24,1,2.46,2,3.69,3a1.2,1.2,0,0,1,.45,1.38,48.49,48.49,0,0,1-4.33,11.07,13.17,13.17,0,0,1-.8,1.2C138.66,21.25,138.64,21.61,138.45,21.87Z"/><path class="cls-4" d="M75.91,20.35a3.54,3.54,0,0,1-3,1.3c-.52,0-1,.06-1.57.08-1.69.09-1.69.09-2,1.74s-.36,1.74,1.24,2a4.21,4.21,0,0,1,2.74,1.74,1,1,0,0,1-.69,1.68,7.61,7.61,0,0,1-1.79-.18,11.08,11.08,0,0,0-3.65-.59c-.78,0-1.11-.33-1-1.08.1-1,.18-1.95.32-2.92.17-1.21.55-2.41,0-3.65a1.57,1.57,0,0,1,.27-1.38,5,5,0,0,0,.52-4,2.9,2.9,0,0,1,3.09-3.35,6.94,6.94,0,0,0,2.8,0,2.24,2.24,0,0,1,2.18.85,1.25,1.25,0,0,1,.22,1.38c-.16.47-.56.51-1,.57a25.12,25.12,0,0,1-3.23.46,1.08,1.08,0,0,0-1.13,1.15c-.19,2.34-.21,2.35,2.06,2.81a2.62,2.62,0,0,0,1.11.06,2.37,2.37,0,0,1,2.48.93A.31.31,0,0,1,75.91,20.35Z"/><path class="cls-4" d="M18.18,13.41c-.13.89-.25,1.79-.42,2.67s.12,1.06.91.74c1.24-.51,2.34-1.35,3.71-1.56.59-.09,1.37-.43,1.69,0s-.27,1.1-.61,1.57a6.14,6.14,0,0,1-3.13,2.3c-.93.31-1.08.73-.54,1.55a26.14,26.14,0,0,1,2.77,4.63,4.49,4.49,0,0,1,.54,2.48c-.2,1-.73,1.19-1.46.45a14.73,14.73,0,0,1-2.34-3.15c-.49-.84-1-1.67-1.53-2.49-.16-.25-.33-.55-.69-.49s-.47.45-.52.78A13.88,13.88,0,0,1,15,27.25a7.66,7.66,0,0,1-.56.84c-.13.17-.29.44-.53.29s-.21-.38-.25-.59a12.17,12.17,0,0,1,.15-5.34c.34-1.33-.24-2.59,0-3.88.05-.28-.15-.66.1-.86,1.33-1.06,1-2.65,1.34-4,.07-.26.05-.53.13-.78.18-.63.41-1.27,1.21-1.25A1.91,1.91,0,0,1,18.18,13.41Z"/><path class="cls-5" d="M147.48,21.67a32.2,32.2,0,0,1-8.57,9.14,36.18,36.18,0,0,1-14.44,6.55,25.33,25.33,0,0,1-3.12.39c-.41,0-1.1.35-1.17-.43s.63-.56,1-.62a24.9,24.9,0,0,0,10.74-4.63,32.82,32.82,0,0,0,8.3-8.8c.16-.16.29-.37.5-.44,2-.65,4-1.26,6.05-1.73C147.13,21,147.68,21,147.48,21.67Z"/><path class="cls-4" d="M76.59,19.9c1.49-1.53,1.68-3.42,1.54-5.41a1.31,1.31,0,0,1,0-.34c.58-3.2,1.17-3,3.4-1.91,1.22.58,2.56.51,3.82.89,1.48.44,2.05.92,2.06,2.08,0,.86-.46,1.23-1.3,1s-1.74-.44-2.62-.6a2.22,2.22,0,0,0-2.34.72c-1,1.23-.84,2.31.65,2.94a12.1,12.1,0,0,0,3.61.84,1.8,1.8,0,0,1,1.64,2c-.08.67-.36,1-1.14.8-1.6-.37-3.23-.66-4.84-1-.63-.13-.88.23-1.06.74A9.69,9.69,0,0,0,79.62,27a1.66,1.66,0,0,1-1.12,1.77c-.62.27-1.07-.16-1.42-.64a.87.87,0,0,1-.21-.74,28.75,28.75,0,0,0,.27-3.58A3.71,3.71,0,0,0,76.55,21C76.45,20.66,76.27,20.27,76.59,19.9Z"/><path class="cls-4" d="M30.94,28.79c-1-.78-2.46-.88-3.8-1.34-.46-.15-.91-.35-1.37-.5s-1.21-.24-1.08-1A2.66,2.66,0,0,1,26,24c.24-.15.42.07.57.25a2.08,2.08,0,0,0,1.86.54,1.13,1.13,0,0,0,1.24-1.16c.28-2.65.74-5.27,1.26-7.89.17-.85,0-1.26-1-1a4.74,4.74,0,0,0-.88.16c-1.09.57-1.4-.1-1.58-1s.63-2.43,1.32-2.29c2.19.43,4.43.1,6.61.56A1.73,1.73,0,0,1,36.94,14a1.52,1.52,0,0,1-1.74,1.53c-1.43-.08-1.76.57-1.9,1.81-.23,2.09-.58,4.16-1,6.23-.29,1.51.48,2.39,1.54,3.22.36.27,1,.43.82,1.07s-.87.56-1.41.62Z"/><path class="cls-4" d="M0,28.36a25.3,25.3,0,0,1,4.09-1.91,17.85,17.85,0,0,0,5.2-2.86c.33-.3.74-.56.57-1.12a1.41,1.41,0,0,0-1-1A13.44,13.44,0,0,1,4.92,20c-1.48-.93-2.8-2.08-2.6-4a4.52,4.52,0,0,1,3.42-3.81,7,7,0,0,1,3.08-.56c.76.08,1.57.13,1.61,1.17A1.57,1.57,0,0,1,8.75,14.4a4.28,4.28,0,0,0-3,1c-.9.74-.82,1.47.27,2,.82.35,1.71.54,2.56.83a7.09,7.09,0,0,1,3,1.73,3.62,3.62,0,0,1,0,5.17c-3.09,3.06-6.88,4-11.08,3.51A3.58,3.58,0,0,1,0,28.36Z"/><path class="cls-4" d="M47.3,25.54c1-.23,2,.46,2.89,1.32.27.25.58.54.33,1a1.07,1.07,0,0,1-.86.64,22.23,22.23,0,0,1-5.93-.15c-1.11-.19-2.23-.34-3.34-.53a2.41,2.41,0,0,0-1.8.49c-.44.29-.58.15-.81-.3a5.23,5.23,0,0,1,.29-5.12,31.87,31.87,0,0,0,2.79-9.67c.12-.72.3-1.43,1.09-1.52a2.82,2.82,0,0,1,2.25.8c.23.21,0,.57,0,.86-.64,3.09-1.68,6.08-2.53,9.11-.8,2.87-.46,2.53,1.76,2.75A16,16,0,0,0,47.3,25.54Z"/><path class="cls-4" d="M61.4,25.62a3.4,3.4,0,0,1,3.33,1.31c.61.63.31,1.41-.58,1.53a20,20,0,0,1-6-.16c-1.11-.19-2.23-.33-3.34-.51a2.13,2.13,0,0,0-1.59.42c-.55.37-.66.14-.94-.37-1-1.73-.51-3.27.29-4.9a32,32,0,0,0,2.8-9.77c.1-.67.28-1.34,1-1.48a3,3,0,0,1,2.29.7c.28.21.09.56,0,.85C58,16.36,57,19.39,56.11,22.45c-.71,2.45-.73,2.5,1.76,2.76.6.07,1.19.18,1.79.25Z"/><path class="cls-4" d="M91.89,26.28c-.16-1.88.53-3.31.82-4.8a2.91,2.91,0,0,0-.37-2.66.6.6,0,0,1-.16-.29c-.07-2.14-1.9-2.89-3.21-4-.62-.53-.73-.88-.11-1.4.2-.17.38-.36.58-.53,1.35-1.07,1.35-1.07,2.31.34a5.73,5.73,0,0,0,.47.63c1.45,1.69,1.66,1.7,3.22.2a4.19,4.19,0,0,1,2.65-1.34c.7-.05,1,.21.77.93a6.45,6.45,0,0,1-1.9,3,2.18,2.18,0,0,0-.74,1.44,45.19,45.19,0,0,1-1.49,7.37,26.6,26.6,0,0,1-1.65,3.07c-.24.49-.52.21-.75-.1A2.87,2.87,0,0,1,91.89,26.28Z"/><path class="cls-6" d="M131.45,24.4a5.59,5.59,0,0,1,2.9-.41c.87.11,1.72-.64,2.57,0-4,5.63-9,9.87-15.79,11.84-.39.11-.94.38-1.15-.24s.24-.71.62-.92a30.75,30.75,0,0,0,9.82-8.93C130.75,25.29,131.11,24.85,131.45,24.4Z"/><path class="cls-7" d="M147.48,21.67c-.09-.54-.41-.38-.75-.28l-6.5,1.88c.87-1.83,2-3.5,2.75-5.4.31-.8.66-1.59,1-2.4s.51-.82,1.08-.25c1.06,1.06,2.15,2.1,3.3,3.07a1.15,1.15,0,0,1,.24,1.81A8.42,8.42,0,0,1,147.48,21.67Z"/><path class="cls-8" d="M76.59,19.9c0,.38,0,.76,0,1.14-.24-.2-.29-.59-.64-.69v-.46Z"/><path class="cls-9" d="M138.45,21.87a.77.77,0,0,1,.47-.85A.94.94,0,0,1,138.45,21.87Z"/></g></g></svg>